<?xml version="1.0" ?><!DOCTYPE svg  PUBLIC '-//W3C//DTD SVG 1.1//EN'  'http://www.w3.org/Graphics/SVG/1.1/DTD/svg11.dtd'><svg height="8.4666mm" style="shape-rendering:geometricPrecision; text-rendering:geometricPrecision; image-rendering:optimizeQuality; fill-rule:evenodd; clip-rule:evenodd" version="1.1" viewBox="0 0 846.66 846.66" width="8.4666mm" xml:space="preserve" xmlns="http://www.w3.org/2000/svg" xmlns:xlink="http://www.w3.org/1999/xlink"><defs><style type="text/css">
   <![CDATA[
    .fil0 {fill:black;fill-rule:nonzero}
   ]]>
  </style></defs><g id="Layer_x0020_1"><path class="fil0" d="M31.56 71.06l783.54 0c11.39,0 20.63,9.24 20.63,20.63l0 541.95c0,11.4 -9.24,20.63 -20.63,20.63l-257.9 0 0 80.07 134.07 0c27.14,0 27.14,41.26 0,41.26 -178.63,0 -357.25,0 -535.88,0 -27.13,0 -27.13,-41.26 0,-41.26l134.07 0 0 -80.07 -257.9 0c-11.39,0 -20.63,-9.23 -20.63,-20.63l0 -541.95c0,-11.39 9.24,-20.63 20.63,-20.63zm644.83 155.67l5.09 64.66c2.01,27.04 -39.1,30.09 -41.11,3.06l-1.99 -25.57 -211.38 171.12c-9.5,8.02 -24.02,5.84 -30.68,-4.75l-64.15 -101.7 -126 142.79c-17.89,20.23 -48.67,-7.02 -30.78,-27.23l144.14 -163.36c9.14,-10.32 25.56,-8.83 32.79,2.66l66.45 105.33 192.46 -155.8 -23.21 -6c-26.18,-6.78 -15.86,-46.59 10.32,-39.81l62.4 16.15c8.95,2.17 14.8,9.55 15.65,18.45zm-160.45 427.54l-185.22 0 0 80.07 185.22 0 0 -80.07zm278.53 -541.95l-742.28 0 0 500.69c247.43,0 494.85,0 742.28,0l0 -500.69z"/></g></svg>